<?xml version="1.0" standalone="no"?>
<!DOCTYPE svg PUBLIC "-//W3C//DTD SVG 20010904//EN"
 "http://www.w3.org/TR/2001/REC-SVG-20010904/DTD/svg10.dtd">
<svg version="1.0" xmlns="http://www.w3.org/2000/svg"
 width="1024.000000pt" height="1024.000000pt" viewBox="0 0 1024.000000 1024.000000"
 preserveAspectRatio="xMidYMid meet">
<metadata>
Created by potrace 1.16, written by Peter Selinger 2001-2019
</metadata>
<g transform="translate(0.000000,1024.000000) scale(0.100000,-0.100000)"
fill="#000000" stroke="none">
<path d="M4167 8329 c-43 -4 -123 -23 -178 -42 -139 -48 -244 -114 -342 -217
-172 -179 -311 -409 -597 -985 -120 -242 -328 -662 -464 -934 -135 -271 -246
-495 -246 -496 0 -7 120 -59 200 -86 245 -85 565 -81 812 7 240 86 452 242
591 433 87 120 70 88 421 786 209 417 331 649 361 687 107 136 310 218 472
190 l53 -9 -22 36 c-117 193 -349 418 -541 525 -157 88 -341 125 -520 105z"/>
<path d="M6093 8320 c-81 -15 -205 -64 -294 -117 -211 -125 -421 -427 -719
-1033 -74 -151 -273 -552 -442 -892 -170 -340 -308 -620 -308 -622 0 -9 168
-78 243 -100 227 -66 515 -61 737 13 289 97 540 296 686 542 34 57 202 383
373 725 298 594 314 624 372 682 42 43 85 74 142 102 98 48 177 64 275 56 l72
-6 -36 58 c-86 135 -247 302 -396 413 -91 67 -233 139 -323 164 -71 20 -304
28 -382 15z"/>
<path d="M7280 7343 c-30 -16 -46 -40 -116 -178 l-82 -160 69 -32 c38 -18 83
-42 100 -54 16 -11 32 -20 33 -18 21 23 156 316 156 338 0 88 -84 142 -160
104z"/>
<path d="M6748 6518 l-188 -372 33 -34 c92 -98 220 -148 359 -140 192 12 347
126 409 302 90 259 -55 530 -322 601 -106 29 -82 59 -291 -357z"/>
<path d="M7520 6749 c-30 -10 -60 -21 -67 -24 -9 -3 -6 -19 11 -57 13 -29 29
-77 36 -105 6 -29 15 -53 18 -53 4 0 41 11 83 25 91 31 119 57 126 119 5 42 3
48 -30 81 -30 30 -42 35 -78 34 -24 0 -69 -9 -99 -20z"/>
<path d="M7481 6233 c-7 -21 -28 -64 -47 -96 -19 -32 -34 -62 -34 -65 0 -13
310 -162 336 -162 41 0 84 29 100 65 18 44 18 59 -2 101 -14 28 -38 44 -175
114 -87 44 -160 80 -162 80 -2 0 -9 -17 -16 -37z"/>
<path d="M6483 5807 c-80 -162 -91 -204 -59 -251 30 -47 86 -61 146 -36 27 11
43 36 111 173 44 88 77 163 72 167 -4 4 -24 13 -44 19 -20 6 -62 27 -93 46
l-56 34 -77 -152z"/>
<path d="M7150 5885 c-30 -13 -74 -27 -98 -31 -23 -3 -44 -10 -47 -14 -7 -12
44 -151 64 -174 43 -49 117 -52 167 -5 37 35 38 69 8 164 -16 47 -31 85 -34
84 -3 0 -30 -11 -60 -24z"/>
<path d="M1217 4500 c-331 -38 -606 -233 -736 -523 -86 -191 -116 -365 -108
-622 8 -260 42 -410 135 -590 38 -72 66 -109 142 -185 141 -142 275 -205 504
-237 197 -28 487 2 676 69 l65 23 3 189 c2 176 1 188 -15 183 -10 -2 -65 -18
-123 -35 -365 -107 -612 -84 -761 69 -111 114 -169 313 -169 574 1 382 143
634 395 700 149 38 311 11 549 -94 27 -12 53 -20 58 -19 9 3 150 349 145 354
-11 11 -151 67 -218 87 -171 52 -385 74 -542 57z"/>
<path d="M3085 4499 c-391 -53 -654 -268 -764 -624 -38 -122 -52 -215 -58
-385 -10 -286 26 -482 124 -680 52 -104 66 -124 157 -215 90 -90 113 -107 206
-153 304 -149 730 -150 1025 -2 270 135 428 376 481 731 25 169 15 463 -20
612 -46 196 -118 337 -236 457 -124 126 -256 197 -449 241 -101 23 -358 33
-466 18z m366 -389 c126 -39 212 -118 273 -251 59 -129 71 -205 70 -449 -1
-187 -3 -225 -22 -295 -75 -276 -234 -405 -500 -405 -225 0 -367 80 -456 257
-52 105 -76 215 -83 384 -22 531 176 803 568 784 47 -3 114 -14 150 -25z"/>
<path d="M4710 3420 l0 -1060 225 0 225 0 0 405 0 405 123 0 122 -1 250 -404
250 -405 248 0 c196 0 247 3 241 13 -5 6 -142 211 -306 454 -164 242 -298 445
-298 450 0 5 17 17 38 27 160 76 294 239 332 405 16 67 16 220 0 297 -44 217
-199 365 -451 428 -141 36 -285 46 -661 46 l-338 0 0 -1060z m823 662 c136
-46 182 -111 182 -257 0 -73 -4 -98 -22 -130 -32 -60 -73 -94 -149 -123 -61
-22 -88 -26 -226 -30 l-158 -4 0 287 0 288 158 -6 c117 -4 172 -11 215 -25z"/>
<path d="M6670 3420 l0 -1060 610 0 610 0 0 185 0 185 -385 0 -385 0 0 270 0
270 358 2 357 3 0 185 0 185 -357 3 -358 2 0 230 0 230 385 0 385 0 0 185 0
185 -610 0 -610 0 0 -1060z"/>
<path d="M8120 4472 c0 -5 146 -236 325 -515 l324 -507 -327 -508 c-180 -279
-338 -524 -351 -544 l-23 -38 240 0 239 0 243 395 c134 217 247 395 250 395 4
0 116 -178 249 -395 l243 -395 255 0 c200 0 253 3 247 13 -4 6 -164 247 -356
534 l-348 521 330 521 c181 287 330 524 330 526 0 3 -108 5 -239 5 l-239 0
-223 -380 c-171 -291 -226 -377 -234 -368 -7 7 -110 178 -231 381 l-219 367
-242 0 c-134 0 -243 -4 -243 -8z"/>
</g>
</svg>
